<svg xmlns="http://www.w3.org/2000/svg" width="300" height="200" viewBox="0 0 300 200">
  <defs>
    <linearGradient id="bg" x1="0" y1="0" x2="0" y2="1">
      <stop offset="0%" stop-color="#f8fafc"/>
      <stop offset="100%" stop-color="#e2e8f0"/>
    </linearGradient>
  </defs>
  <rect width="300" height="200" fill="url(#bg)"/>
  <rect x="0" y="0" width="300" height="4" fill="#3498db"/>
  <path d="M60,55 L240,55 L240,145 L60,145 Z M70,65 L95,65 L95,90 L70,90 Z M100,65 L125,65 L125,90 L100,90 Z M130,65 L155,65 L155,90 L130,90 Z M160,65 L185,65 L185,90 L160,90 Z M190,65 L230,65 L230,90 L190,90 Z M70,105 L230,105 L230,135 L70,135 Z" fill="none" stroke="#3498db" stroke-width="1.5" opacity="0.3"/>
  <text x="150" y="170" text-anchor="middle" font-family="Arial,sans-serif" font-size="16" font-weight="700" fill="#2980b9">ASR1000-6TGE</text>
  <text x="150" y="188" text-anchor="middle" font-family="Arial,sans-serif" font-size="10" fill="#94a3b8">EPA | ASR 1000</text>
</svg>